<svg width="27" height="27" viewBox="0 0 27 27" fill="none" xmlns="http://www.w3.org/2000/svg">
<mask id="mask0_1_9606" style="mask-type:alpha" maskUnits="userSpaceOnUse" x="0" y="0" width="27" height="27">
<rect width="27" height="27" fill="#D9D9D9"/>
</mask>
<g mask="url(#mask0_1_9606)">
<path d="M15.4406 23.625L7.875 15.75V13.5H11.8125C12.8063 13.5 13.6641 13.1766 14.3859 12.5297C15.1078 11.8828 15.5438 11.0813 15.6938 10.125H6.75V7.875H15.3562C15.0375 7.21875 14.5641 6.67969 13.9359 6.25781C13.3078 5.83594 12.6 5.625 11.8125 5.625H6.75V3.375H20.25V5.625H16.5938C16.8562 5.94375 17.0906 6.29062 17.2969 6.66562C17.5031 7.04062 17.6625 7.44375 17.775 7.875H20.25V10.125H17.9719C17.8219 11.7188 17.1656 13.0547 16.0031 14.1328C14.8406 15.2109 13.4437 15.75 11.8125 15.75H10.9969L18.5625 23.625H15.4406Z" fill="white"/>
</g>
</svg>
