<svg width="19" height="20" viewBox="0 0 19 20" fill="none" xmlns="http://www.w3.org/2000/svg">
<path d="M17.6919 20H3.84578C3.64177 20 3.44611 19.919 3.30185 19.7747C3.15759 19.6304 3.07655 19.4348 3.07655 19.2308V10C3.07655 9.79599 3.15759 9.60033 3.30185 9.45607C3.44611 9.31181 3.64177 9.23077 3.84578 9.23077C4.04979 9.23077 4.24545 9.31181 4.38971 9.45607C4.53397 9.60033 4.61501 9.79599 4.61501 10V18.4615H16.9227V2.30769C16.9227 2.10368 16.8417 1.90802 16.6974 1.76376C16.5531 1.61951 16.3575 1.53846 16.1535 1.53846H2.30732C2.1033 1.53846 1.90765 1.45742 1.76339 1.31316C1.61913 1.1689 1.53809 0.973243 1.53809 0.769231C1.53809 0.565218 1.61913 0.369561 1.76339 0.225302C1.90765 0.0810437 2.1033 0 2.30732 0H16.1535C16.7655 0 17.3525 0.243131 17.7853 0.675907C18.218 1.10868 18.4612 1.69565 18.4612 2.30769V19.2308C18.4612 19.4348 18.3801 19.6304 18.2359 19.7747C18.0916 19.919 17.8959 20 17.6919 20Z" fill="white"/>
<path d="M3.84615 10.7692H0.769231C0.565218 10.7692 0.369561 10.6882 0.225303 10.5439C0.0810439 10.3997 0 10.204 0 10V2.30769C9.12008e-09 1.69565 0.243131 1.10868 0.675907 0.675907C1.10868 0.243131 1.69565 0 2.30769 0C2.91973 0 3.5067 0.243131 3.93948 0.675907C4.37225 1.10868 4.61538 1.69565 4.61538 2.30769V10C4.61538 10.204 4.53434 10.3997 4.39008 10.5439C4.24582 10.6882 4.05017 10.7692 3.84615 10.7692ZM1.53846 9.23077H3.07692V2.30769C3.07692 2.10368 2.99588 1.90802 2.85162 1.76376C2.70736 1.61951 2.51171 1.53846 2.30769 1.53846C2.10368 1.53846 1.90802 1.61951 1.76376 1.76376C1.61951 1.90802 1.53846 2.10368 1.53846 2.30769V9.23077Z" fill="white"/>
<path d="M11.5389 12.308H6.92353C6.71951 12.308 6.52386 12.2269 6.3796 12.0827C6.23534 11.9384 6.1543 11.7428 6.1543 11.5388C6.1543 11.3347 6.23534 11.1391 6.3796 10.9948C6.52386 10.8506 6.71951 10.7695 6.92353 10.7695H11.5389C11.7429 10.7695 11.9386 10.8506 12.0828 10.9948C12.2271 11.1391 12.3081 11.3347 12.3081 11.5388C12.3081 11.7428 12.2271 11.9384 12.0828 12.0827C11.9386 12.2269 11.7429 12.308 11.5389 12.308Z" fill="white"/>
<path d="M14.6158 15.3842H6.92353C6.71951 15.3842 6.52386 15.3031 6.3796 15.1589C6.23534 15.0146 6.1543 14.8189 6.1543 14.6149C6.1543 14.4109 6.23534 14.2153 6.3796 14.071C6.52386 13.9267 6.71951 13.8457 6.92353 13.8457H14.6158C14.8198 13.8457 15.0155 13.9267 15.1598 14.071C15.304 14.2153 15.3851 14.4109 15.3851 14.6149C15.3851 14.8189 15.304 15.0146 15.1598 15.1589C15.0155 15.3031 14.8198 15.3842 14.6158 15.3842Z" fill="white"/>
<path d="M13.0774 9.23084H6.92353C6.71951 9.23084 6.52386 9.1498 6.3796 9.00554C6.23534 8.86128 6.1543 8.66563 6.1543 8.46161C6.1543 8.2576 6.23534 8.06194 6.3796 7.91769C6.52386 7.77343 6.71951 7.69238 6.92353 7.69238H13.0774C13.2814 7.69238 13.477 7.77343 13.6213 7.91769C13.7656 8.06194 13.8466 8.2576 13.8466 8.46161C13.8466 8.66563 13.7656 8.86128 13.6213 9.00554C13.477 9.1498 13.2814 9.23084 13.0774 9.23084Z" fill="white"/>
<path d="M14.6158 3.84615H6.92353C6.71951 3.84615 6.52386 3.76511 6.3796 3.62085C6.23534 3.47659 6.1543 3.28094 6.1543 3.07692V0.769231C6.1543 0.565218 6.23534 0.369561 6.3796 0.225302C6.52386 0.0810437 6.71951 0 6.92353 0H14.6158C14.8198 0 15.0155 0.0810437 15.1598 0.225302C15.304 0.369561 15.3851 0.565218 15.3851 0.769231V3.07692C15.3851 3.28094 15.304 3.47659 15.1598 3.62085C15.0155 3.76511 14.8198 3.84615 14.6158 3.84615ZM7.69276 2.30769H13.8466V1.53846H7.69276V2.30769Z" fill="white"/>
</svg>
