<svg width="36" height="42" viewBox="0 0 36 42" fill="none" xmlns="http://www.w3.org/2000/svg">
<path d="M29.0769 30.1154C28.3112 30.1154 27.6923 30.7343 27.6923 31.5V38.7692H2.76923V8.30769H27.6923V19.5508C27.6923 20.3164 28.3112 20.9354 29.0769 20.9354C29.8426 20.9354 30.4615 20.3164 30.4615 19.5508V6.92307V1.38461C30.4615 0.618923 29.8426 0 29.0769 0H1.38461C0.618923 0 0 0.618923 0 1.38461V6.92307V40.1538C0 40.9195 0.618923 41.5384 1.38461 41.5384H29.0769C29.8426 41.5384 30.4615 40.9195 30.4615 40.1538V31.5C30.4615 30.7343 29.8426 30.1154 29.0769 30.1154ZM2.76923 2.76923H27.6923V5.53846H2.76923V2.76923Z" fill="#242424"/>
<path d="M35.626 19.8226C35.1026 19.266 34.2275 19.2355 33.6681 19.7575L19.8137 32.7189L13.407 26.7235C12.8504 26.2001 11.9712 26.2278 11.4506 26.7872C10.9272 27.3438 10.9563 28.2203 11.5143 28.7436L18.868 35.6266C19.1338 35.8758 19.4744 36.0004 19.815 36.0004C20.1557 36.0004 20.4949 35.8758 20.7621 35.6266L35.5623 21.7804C36.1203 21.2584 36.148 20.382 35.626 19.8226Z" fill="#242424"/>
<path d="M6.14536 13.3268H12.3761C13.1418 13.3268 13.7607 12.7079 13.7607 11.9422C13.7607 11.1765 13.1418 10.5576 12.3761 10.5576H6.14536C5.37966 10.5576 4.76074 11.1765 4.76074 11.9422C4.76074 12.7079 5.37966 13.3268 6.14536 13.3268Z" fill="#242424"/>
<path d="M23.1927 16.3563C23.1927 15.5906 22.5738 14.9717 21.8081 14.9717H6.14536C5.37966 14.9717 4.76074 15.5906 4.76074 16.3563C4.76074 17.122 5.37966 17.7409 6.14536 17.7409H21.8081C22.5738 17.7409 23.1927 17.1206 23.1927 16.3563Z" fill="#242424"/>
<path d="M6.14536 19.3848C5.37966 19.3848 4.76074 20.0037 4.76074 20.7694C4.76074 21.5351 5.37966 22.154 6.14536 22.154H16.8761C17.6418 22.154 18.2607 21.5351 18.2607 20.7694C18.2607 20.0037 17.6418 19.3848 16.8761 19.3848H6.14536Z" fill="#242424"/>
</svg>
