<svg width="43" height="43" viewBox="0 0 43 43" fill="none" xmlns="http://www.w3.org/2000/svg">
<path d="M21.5 0C9.65135 0 0 9.65135 0 21.5C0 33.3487 9.65135 43 21.5 43C33.3487 43 43 33.3487 43 21.5C43 9.65135 33.3487 0 21.5 0ZM21.5 4.3C31.0248 4.3 38.7 11.9752 38.7 21.5C38.7 31.0248 31.0248 38.7 21.5 38.7C11.9752 38.7 4.3 31.0248 4.3 21.5C4.3 11.9752 11.9752 4.3 21.5 4.3Z" fill="#242424"/>
<path d="M21.5006 8.59961C20.9304 8.59961 20.3835 8.82616 19.9803 9.22936C19.5771 9.63256 19.3506 10.1794 19.3506 10.7496V21.4324C19.3506 21.7157 19.4067 21.9962 19.5155 22.2578C19.6243 22.5194 19.7838 22.757 19.9847 22.9567L26.4347 29.3647C26.839 29.7667 27.3864 29.9916 27.9566 29.99C28.5267 29.9884 29.0728 29.7604 29.4749 29.3562C29.8769 28.9518 30.1018 28.4044 30.1002 27.8343C30.0985 27.2641 29.8705 26.718 29.4663 26.3159L23.6506 20.538V10.7496C23.6506 10.1794 23.4241 9.63256 23.0209 9.22936C22.6177 8.82616 22.0708 8.59961 21.5006 8.59961Z" fill="#242424"/>
</svg>
