<svg width="93" height="92" viewBox="0 0 93 92" fill="none" xmlns="http://www.w3.org/2000/svg">
<path d="M52.4082 37.7197L44.5953 49.2197L42.2973 46.9197C40.459 45.0797 37.7015 45.0797 35.8631 46.9197C34.0248 48.7597 34.0248 51.5197 35.8631 53.3597L42.2973 59.7997C43.2165 60.7197 44.1357 61.1797 45.5144 61.1797H45.974C47.3528 61.1797 48.7315 60.2597 49.1911 59.3397L60.2212 42.7797C61.5999 40.4797 61.1403 37.7197 58.8424 36.3397C56.5445 34.9597 53.787 35.4197 52.4082 37.7197Z" fill="#BDBDBD"/>
<path d="M87.3376 33.12C85.4993 31.28 84.5801 28.98 84.5801 26.68C84.5801 16.56 76.3076 8.28 66.1967 8.28C63.8988 8.28 61.6008 7.36 59.7625 5.52C52.4091 -1.84 40.9195 -1.84 33.5661 5.52C32.1874 7.36 29.8894 8.28 27.5915 8.28C17.4806 8.28 9.20809 16.56 9.20809 26.68C9.20809 28.98 8.28892 31.28 6.45057 33.12C-0.902795 40.48 -0.902795 51.98 6.45057 59.34C8.28892 61.18 9.20809 63.48 9.20809 65.78C9.20809 75.9 17.4806 84.18 27.5915 84.18C29.8894 84.18 32.1874 85.1 34.0257 86.94C37.7024 90.16 42.2983 92 46.8941 92C51.49 92 56.5454 90.16 59.7625 86.48C61.6008 84.64 63.8988 83.72 66.1967 83.72C76.3076 83.72 84.5801 75.44 84.5801 65.32C84.5801 63.02 85.4993 60.72 86.8781 58.88C94.691 51.98 94.691 40.02 87.3376 33.12ZM80.9034 52.44C77.2268 56.12 75.3884 60.72 75.3884 65.32C75.3884 70.38 71.2522 74.52 66.1967 74.52C61.1413 74.52 56.5454 76.36 53.3283 80.04C49.6516 83.72 43.677 83.72 40.4599 80.04C36.7832 76.36 32.1874 74.52 27.5915 74.52C22.5361 74.52 18.3998 70.38 18.3998 65.32C18.3998 60.26 16.5615 55.66 12.8848 52.44C9.20809 48.76 9.20809 43.24 12.8848 39.56C16.5615 35.88 18.3998 31.28 18.3998 26.68C18.3998 21.62 22.5361 17.48 27.5915 17.48C32.647 17.48 37.2428 15.64 40.4599 11.96C42.2983 10.12 44.5962 9.2 46.8941 9.2C49.192 9.2 51.49 10.12 53.3283 11.96C57.005 15.64 61.6009 17.48 66.1967 17.48C71.2522 17.48 75.3884 21.62 75.3884 26.68C75.3884 31.74 77.2268 36.34 80.9034 39.56C84.5801 43.24 84.5801 48.76 80.9034 52.44Z" fill="#BDBDBD"/>
</svg>
