<svg width="71" height="71" viewBox="0 0 71 71" fill="none" xmlns="http://www.w3.org/2000/svg">
<path d="M35.5002 71C55.1063 71 71 55.1061 71 35.4999C71 15.8937 55.1063 0 35.5002 0C15.8939 0 0 15.8937 0 35.4999C0 55.1061 15.8939 71 35.5002 71ZM35.5002 65.6758C18.8344 65.6758 5.32418 52.1656 5.32418 35.4999C5.32418 18.8341 18.8344 5.32418 35.5002 5.32418C52.1655 5.32418 65.6758 18.8341 65.6758 35.4999C65.6758 52.1656 52.1655 65.6758 35.5002 65.6758ZM35.487 40.8276C36.8348 40.8283 37.9493 39.8277 38.1264 38.5286L38.1509 38.1673L38.1637 18.6396C38.1647 17.1694 36.9735 15.9768 35.5034 15.9757C34.1556 15.975 33.0411 16.9756 32.864 18.2747L32.8395 18.6361L32.8267 38.1637C32.8256 39.6339 34.0168 40.8265 35.487 40.8276ZM35.5016 53.2427C37.4595 53.2427 39.0464 51.6557 39.0464 49.698C39.0464 47.7403 37.4595 46.1533 35.5016 46.1533C33.5441 46.1533 31.9567 47.7403 31.9567 49.698C31.9567 51.6557 33.5441 53.2427 35.5016 53.2427Z" fill="#FF0000"/>
</svg>
