<svg viewBox="0 0 100 100" xmlns="http://www.w3.org/2000/svg"><g display="inline"><path d="M20 0C8.92 0 0 8.92 0 20v60c0 11.08 8.92 20 20 20h60c11.08 0 20-8.92 20-20V20c0-11.08-8.92-20-20-20H20zm19.367 17.264h21.268c2.102 0 3.793 1.566 3.793 3.511v30.479h11.64c.429 0 1.609 1.297.037 2.805L49.918 79.186l-26.17-25.112c-1.174-1.086-.484-2.82.02-2.82h11.804V20.775c-.127-1.94 1.693-3.511 3.795-3.511zM25.723 82.672h48.554a2.551 2.551 0 0 1 2.557 2.557v2.23a2.551 2.551 0 0 1-2.557 2.557H25.723a2.551 2.551 0 0 1-2.557-2.557v-2.23a2.551 2.551 0 0 1 2.557-2.557z" opacity="1" fill="#ffffff" fill-opacity="1" fill-rule="nonzero" stroke="none" stroke-width="3.79999995" stroke-linecap="round" stroke-linejoin="round" stroke-miterlimit="4" stroke-dasharray="none" stroke-dashoffset="0" stroke-opacity="1" class="fill-000000"></path></g></svg>