<svg width="35" height="35" viewBox="0 0 35 35" fill="none" xmlns="http://www.w3.org/2000/svg">
<mask id="mask0_16_236" style="mask-type:alpha" maskUnits="userSpaceOnUse" x="0" y="0" width="35" height="35">
<rect width="35" height="35" fill="#D9D9D9"/>
</mask>
<g mask="url(#mask0_16_236)">
<path d="M8.75 32.0833C7.53472 32.0833 6.50174 31.658 5.65104 30.8073C4.80035 29.9566 4.375 28.9236 4.375 27.7083V23.3333H8.75V2.91667L10.9375 5.10417L13.125 2.91667L15.3125 5.10417L17.5 2.91667L19.6875 5.10417L21.875 2.91667L24.0625 5.10417L26.25 2.91667L28.4375 5.10417L30.625 2.91667V27.7083C30.625 28.9236 30.1997 29.9566 29.349 30.8073C28.4983 31.658 27.4653 32.0833 26.25 32.0833H8.75ZM26.25 29.1667C26.6632 29.1667 27.0096 29.0269 27.2891 28.7474C27.5686 28.4679 27.7083 28.1215 27.7083 27.7083V7.29167H11.6667V23.3333H24.7917V27.7083C24.7917 28.1215 24.9314 28.4679 25.2109 28.7474C25.4905 29.0269 25.8368 29.1667 26.25 29.1667ZM13.125 13.125V10.2083H21.875V13.125H13.125ZM13.125 17.5V14.5833H21.875V17.5H13.125ZM24.7917 13.125C24.3785 13.125 24.0321 12.9852 23.7526 12.7057C23.4731 12.4262 23.3333 12.0799 23.3333 11.6667C23.3333 11.2535 23.4731 10.9071 23.7526 10.6276C24.0321 10.3481 24.3785 10.2083 24.7917 10.2083C25.2049 10.2083 25.5512 10.3481 25.8307 10.6276C26.1102 10.9071 26.25 11.2535 26.25 11.6667C26.25 12.0799 26.1102 12.4262 25.8307 12.7057C25.5512 12.9852 25.2049 13.125 24.7917 13.125ZM24.7917 17.5C24.3785 17.5 24.0321 17.3602 23.7526 17.0807C23.4731 16.8012 23.3333 16.4549 23.3333 16.0417C23.3333 15.6285 23.4731 15.2821 23.7526 15.0026C24.0321 14.7231 24.3785 14.5833 24.7917 14.5833C25.2049 14.5833 25.5512 14.7231 25.8307 15.0026C26.1102 15.2821 26.25 15.6285 26.25 16.0417C26.25 16.4549 26.1102 16.8012 25.8307 17.0807C25.5512 17.3602 25.2049 17.5 24.7917 17.5ZM8.75 29.1667H21.875V26.25H7.29167V27.7083C7.29167 28.1215 7.43142 28.4679 7.71094 28.7474C7.99045 29.0269 8.33681 29.1667 8.75 29.1667Z" fill="#DE1A22"/>
</g>
</svg>
