<svg width="20" height="20" viewBox="0 0 20 20" fill="none" xmlns="http://www.w3.org/2000/svg">
<mask id="mask0_16_225" style="mask-type:alpha" maskUnits="userSpaceOnUse" x="0" y="0" width="20" height="20">
<rect width="20" height="20" fill="#D9D9D9"/>
</mask>
<g mask="url(#mask0_16_225)">
<path d="M15 11.0417L16.6667 12.7083V16.6667C16.6667 17.125 16.5035 17.5174 16.1771 17.8438C15.8507 18.1701 15.4583 18.3333 15 18.3333H3.33334C2.87501 18.3333 2.48264 18.1701 2.15626 17.8438C1.82987 17.5174 1.66667 17.125 1.66667 16.6667V5C1.66667 4.54167 1.82987 4.1493 2.15626 3.82292C2.48264 3.49653 2.87501 3.33333 3.33334 3.33333H7.91667C7.80556 3.58333 7.72223 3.85069 7.66667 4.13542C7.61112 4.42014 7.56945 4.70833 7.54167 5H3.33334V16.6667H15V11.0417ZM16.0833 7.41667L18.75 10.0833L17.5833 11.25L14.9167 8.58333C14.625 8.75 14.3125 8.88889 13.9792 9C13.6458 9.11111 13.2917 9.16667 12.9167 9.16667C11.875 9.16667 10.9896 8.80208 10.2604 8.07292C9.53126 7.34375 9.16667 6.45833 9.16667 5.41667C9.16667 4.375 9.53126 3.48958 10.2604 2.76042C10.9896 2.03125 11.875 1.66667 12.9167 1.66667C13.9583 1.66667 14.8438 2.03125 15.5729 2.76042C16.3021 3.48958 16.6667 4.375 16.6667 5.41667C16.6667 5.79167 16.6111 6.14583 16.5 6.47917C16.3889 6.8125 16.25 7.125 16.0833 7.41667ZM12.9167 7.5C13.5 7.5 13.9931 7.29861 14.3958 6.89583C14.7986 6.49305 15 6 15 5.41667C15 4.83333 14.7986 4.34028 14.3958 3.9375C13.9931 3.53472 13.5 3.33333 12.9167 3.33333C12.3333 3.33333 11.8403 3.53472 11.4375 3.9375C11.0347 4.34028 10.8333 4.83333 10.8333 5.41667C10.8333 6 11.0347 6.49305 11.4375 6.89583C11.8403 7.29861 12.3333 7.5 12.9167 7.5ZM3.33334 16.6667V5V10.8333V10.5833V16.6667Z" fill="white"/>
</g>
</svg>
