<svg width="20" height="20" viewBox="0 0 20 20" fill="none" xmlns="http://www.w3.org/2000/svg">
<mask id="mask0_16_226" style="mask-type:alpha" maskUnits="userSpaceOnUse" x="0" y="0" width="20" height="20">
<rect width="20" height="20" fill="#D9D9D9"/>
</mask>
<g mask="url(#mask0_16_226)">
<path d="M11.875 17.8333C11.5556 18.1528 11.1597 18.3125 10.6875 18.3125C10.2153 18.3125 9.81945 18.1528 9.50001 17.8333L2.16667 10.5C2.01389 10.3472 1.89237 10.1667 1.80209 9.95833C1.71181 9.75 1.66667 9.52778 1.66667 9.29167V3.33333C1.66667 2.875 1.82987 2.48264 2.15626 2.15625C2.48264 1.82986 2.87501 1.66667 3.33334 1.66667H9.29167C9.52778 1.66667 9.75001 1.7118 9.95834 1.80208C10.1667 1.89236 10.3472 2.01389 10.5 2.16667L17.8333 9.52083C18.1528 9.84028 18.3125 10.2326 18.3125 10.6979C18.3125 11.1632 18.1528 11.5556 17.8333 11.875L11.875 17.8333ZM10.6875 16.6667L16.6458 10.7083L9.29167 3.33333H3.33334V9.29167L10.6875 16.6667ZM5.41667 6.66667C5.76389 6.66667 6.05903 6.54514 6.30209 6.30208C6.54514 6.05903 6.66667 5.76389 6.66667 5.41667C6.66667 5.06944 6.54514 4.77431 6.30209 4.53125C6.05903 4.28819 5.76389 4.16667 5.41667 4.16667C5.06945 4.16667 4.77431 4.28819 4.53126 4.53125C4.2882 4.77431 4.16667 5.06944 4.16667 5.41667C4.16667 5.76389 4.2882 6.05903 4.53126 6.30208C4.77431 6.54514 5.06945 6.66667 5.41667 6.66667Z" fill="white"/>
</g>
</svg>
