<svg width="17" height="15" viewBox="0 0 17 15" fill="none" xmlns="http://www.w3.org/2000/svg">
<path d="M15.3 11.5385C14.5622 11.5385 13.9389 12.0219 13.7043 12.6923H3.4C2.14993 12.6923 1.13333 11.6573 1.13333 10.3846C1.13333 9.11192 2.14993 8.07692 3.4 8.07692H13.6C15.4745 8.07692 17 6.52385 17 4.61538C17 2.70692 15.4745 1.15385 13.6 1.15385H3.29573C3.06113 0.483462 2.4378 0 1.7 0C0.762733 0 0 0.776538 0 1.73077C0 2.685 0.762733 3.46154 1.7 3.46154C2.4378 3.46154 3.06113 2.97808 3.29573 2.30769H13.6C14.8501 2.30769 15.8667 3.34269 15.8667 4.61538C15.8667 5.88808 14.8501 6.92308 13.6 6.92308H3.4C1.52547 6.92308 0 8.47615 0 10.3846C0 12.2931 1.52547 13.8462 3.4 13.8462H13.7043C13.9389 14.5165 14.5622 15 15.3 15C16.2373 15 17 14.2235 17 13.2692C17 12.315 16.2373 11.5385 15.3 11.5385ZM1.7 2.30769C1.3872 2.30769 1.13333 2.04923 1.13333 1.73077C1.13333 1.41231 1.3872 1.15385 1.7 1.15385C2.0128 1.15385 2.26667 1.41231 2.26667 1.73077C2.26667 2.04923 2.0128 2.30769 1.7 2.30769ZM15.3 13.8462C14.9872 13.8462 14.7333 13.5877 14.7333 13.2692C14.7333 12.9508 14.9872 12.6923 15.3 12.6923C15.6128 12.6923 15.8667 12.9508 15.8667 13.2692C15.8667 13.5877 15.6128 13.8462 15.3 13.8462Z" fill="white"/>
</svg>
