<svg width="21" height="21" viewBox="0 0 21 21" fill="none" xmlns="http://www.w3.org/2000/svg">
<path d="M10.5 0C4.7096 0 0 4.7096 0 10.5C0 16.2904 4.7096 21 10.5 21C16.2904 21 21 16.2904 21 10.5C21 4.7096 16.2904 0 10.5 0ZM10.5 19.6C5.4824 19.6 1.4 15.5176 1.4 10.5C1.4 5.4824 5.4824 1.4 10.5 1.4C15.5176 1.4 19.6 5.4824 19.6 10.5C19.6 15.5176 15.5176 19.6 10.5 19.6Z" fill="white"/>
<path d="M9.10742 12.3952L5.40582 8.69357L4.41602 9.68337L9.11442 14.3818L16.5988 6.79237L15.602 5.80957L9.10742 12.3952Z" fill="white"/>
</svg>
