<svg width="20" height="22" viewBox="0 0 20 22" fill="none" xmlns="http://www.w3.org/2000/svg">
<line y1="-0.5" x2="19" y2="-0.5" transform="matrix(-1 0 0 1 19 21.5078)" stroke="white"/>
<line y1="-0.5" x2="15.0794" y2="-0.5" transform="matrix(4.37114e-08 -1 -1 -4.37114e-08 1.80957 20)" stroke="white"/>
<line y1="-0.5" x2="19" y2="-0.5" transform="matrix(4.37114e-08 -1 -1 -4.37114e-08 18.0957 20)" stroke="white"/>
<line y1="-0.5" x2="19" y2="-0.5" transform="matrix(4.37114e-08 -1 -1 -4.37114e-08 9.95215 20)" stroke="white"/>
<line y1="-0.5" x2="8.74603" y2="-0.5" transform="matrix(-1 0 0 1 18.6982 1.60352)" stroke="white"/>
<line y1="-0.5" x2="8.74603" y2="-0.5" transform="matrix(-1 0 0 1 18.6982 4.61914)" stroke="white"/>
<line y1="-0.5" x2="8.74603" y2="-0.5" transform="matrix(-1 0 0 1 18.6982 7.63477)" stroke="white"/>
<line y1="-0.5" x2="8.74603" y2="-0.5" transform="matrix(-1 0 0 1 18.6982 10.6504)" stroke="white"/>
<line y1="-0.5" x2="8.74603" y2="-0.5" transform="matrix(-1 0 0 1 18.6982 13.667)" stroke="white"/>
<line y1="-0.5" x2="8.74603" y2="-0.5" transform="matrix(-1 0 0 1 18.6982 16.6826)" stroke="white"/>
<line y1="-0.5" x2="3.92063" y2="-0.5" transform="matrix(-4.37114e-08 1 1 4.37114e-08 14.4766 16.0791)" stroke="white"/>
<line y1="-0.5" x2="8.74603" y2="-0.5" transform="matrix(-1 0 0 1 10.5557 5.22266)" stroke="white"/>
<line y1="-0.5" x2="7.53968" y2="-0.5" transform="matrix(-1 -8.74228e-08 -8.74228e-08 1 9.34961 7.63477)" stroke="white"/>
<line y1="-0.5" x2="7.53968" y2="-0.5" transform="matrix(-1 -8.74228e-08 -8.74228e-08 1 9.34961 10.0479)" stroke="white"/>
<line y1="-0.5" x2="7.53968" y2="-0.5" transform="matrix(-1 -8.74228e-08 -8.74228e-08 1 9.34961 12.46)" stroke="white"/>
<line y1="-0.5" x2="7.53968" y2="-0.5" transform="matrix(-1 -8.74228e-08 -8.74228e-08 1 9.34961 14.873)" stroke="white"/>
<line y1="-0.5" x2="7.53968" y2="-0.5" transform="matrix(-1 -8.74228e-08 -8.74228e-08 1 9.34961 17.2861)" stroke="white"/>
</svg>
