<svg width="21" height="20" viewBox="0 0 21 20" fill="none" xmlns="http://www.w3.org/2000/svg">
<path d="M8.15088 0H1.16441C0.85559 0 0.559418 0.117063 0.341048 0.325437C0.122679 0.533811 0 0.816426 0 1.11111V7.77778C0 8.07246 0.122679 8.35508 0.341048 8.56345C0.559418 8.77183 0.85559 8.88889 1.16441 8.88889H8.15088C8.4597 8.88889 8.75588 8.77183 8.97425 8.56345C9.19261 8.35508 9.31529 8.07246 9.31529 7.77778V1.11111C9.31529 0.816426 9.19261 0.533811 8.97425 0.325437C8.75588 0.117063 8.4597 0 8.15088 0ZM6.98647 6.66667H2.32882V2.22222H6.98647V6.66667ZM19.795 11.1111H12.8085C12.4997 11.1111 12.2035 11.2282 11.9852 11.4365C11.7668 11.6449 11.6441 11.9275 11.6441 12.2222V18.8889C11.6441 19.1836 11.7668 19.4662 11.9852 19.6746C12.2035 19.8829 12.4997 20 12.8085 20H19.795C20.1038 20 20.4 19.8829 20.6184 19.6746C20.8367 19.4662 20.9594 19.1836 20.9594 18.8889V12.2222C20.9594 11.9275 20.8367 11.6449 20.6184 11.4365C20.4 11.2282 20.1038 11.1111 19.795 11.1111ZM18.6306 17.7778H13.9729V13.3333H18.6306V17.7778ZM16.3018 0C13.7331 0 11.6441 1.99333 11.6441 4.44444C11.6441 6.89556 13.7331 8.88889 16.3018 8.88889C18.8705 8.88889 20.9594 6.89556 20.9594 4.44444C20.9594 1.99333 18.8705 0 16.3018 0ZM16.3018 6.66667C15.0174 6.66667 13.9729 5.67 13.9729 4.44444C13.9729 3.21889 15.0174 2.22222 16.3018 2.22222C17.5861 2.22222 18.6306 3.21889 18.6306 4.44444C18.6306 5.67 17.5861 6.66667 16.3018 6.66667ZM4.65765 11.1111C2.08895 11.1111 0 13.1044 0 15.5556C0 18.0067 2.08895 20 4.65765 20C7.22634 20 9.31529 18.0067 9.31529 15.5556C9.31529 13.1044 7.22634 11.1111 4.65765 11.1111ZM4.65765 17.7778C3.3733 17.7778 2.32882 16.7811 2.32882 15.5556C2.32882 14.33 3.3733 13.3333 4.65765 13.3333C5.94199 13.3333 6.98647 14.33 6.98647 15.5556C6.98647 16.7811 5.94199 17.7778 4.65765 17.7778Z" fill="white"/>
</svg>
