<svg width="35" height="35" viewBox="0 0 35 35" fill="none" xmlns="http://www.w3.org/2000/svg">
<mask id="mask0_16_235" style="mask-type:alpha" maskUnits="userSpaceOnUse" x="0" y="0" width="35" height="35">
<rect width="35" height="35" fill="#D9D9D9"/>
</mask>
<g mask="url(#mask0_16_235)">
<path d="M8.75 32.0833C7.53472 32.0833 6.50174 31.658 5.65104 30.8073C4.80035 29.9566 4.375 28.9236 4.375 27.7083V23.3333H8.75V2.91667H30.625V27.7083C30.625 28.9236 30.1997 29.9566 29.349 30.8073C28.4983 31.658 27.4653 32.0833 26.25 32.0833H8.75ZM26.25 29.1667C26.6632 29.1667 27.0096 29.0269 27.2891 28.7474C27.5686 28.4679 27.7083 28.1215 27.7083 27.7083V5.83334H11.6667V23.3333H24.7917V27.7083C24.7917 28.1215 24.9314 28.4679 25.2109 28.7474C25.4905 29.0269 25.8368 29.1667 26.25 29.1667ZM13.125 13.125V10.2083H26.25V13.125H13.125ZM13.125 17.5V14.5833H26.25V17.5H13.125ZM8.75 29.1667H21.875V26.25H7.29167V27.7083C7.29167 28.1215 7.43142 28.4679 7.71094 28.7474C7.99045 29.0269 8.33681 29.1667 8.75 29.1667ZM8.75 29.1667H7.29167H21.875H8.75Z" fill="#DE1A22"/>
</g>
</svg>
