<svg width="20" height="20" viewBox="0 0 20 20" fill="none" xmlns="http://www.w3.org/2000/svg">
<mask id="mask0_16_228" style="mask-type:alpha" maskUnits="userSpaceOnUse" x="0" y="0" width="20" height="20">
<rect width="20" height="20" fill="#D9D9D9"/>
</mask>
<g mask="url(#mask0_16_228)">
<path d="M9.16667 10.8333V2.5H10.8333V10.8333H9.16667ZM10 17.5C8.97222 17.5 8.00347 17.3021 7.09375 16.9062C6.18403 16.5104 5.38889 15.9722 4.70833 15.2917C4.02778 14.6111 3.48958 13.816 3.09375 12.9062C2.69792 11.9965 2.5 11.0278 2.5 10C2.5 8.88889 2.72917 7.84028 3.1875 6.85417C3.64583 5.86806 4.29167 5.01389 5.125 4.29167L6.29167 5.45833C5.625 6.01389 5.10417 6.6875 4.72917 7.47917C4.35417 8.27083 4.16667 9.11111 4.16667 10C4.16667 11.6111 4.73611 12.9861 5.875 14.125C7.01389 15.2639 8.38889 15.8333 10 15.8333C11.625 15.8333 13.0035 15.2639 14.1354 14.125C15.2674 12.9861 15.8333 11.6111 15.8333 10C15.8333 9.11111 15.6493 8.27083 15.2812 7.47917C14.9132 6.6875 14.3889 6.01389 13.7083 5.45833L14.875 4.29167C15.7083 5.01389 16.3542 5.86806 16.8125 6.85417C17.2708 7.84028 17.5 8.88889 17.5 10C17.5 11.0278 17.3021 11.9965 16.9062 12.9062C16.5104 13.816 15.9757 14.6111 15.3021 15.2917C14.6285 15.9722 13.8368 16.5104 12.9271 16.9062C12.0174 17.3021 11.0417 17.5 10 17.5Z" fill="white"/>
</g>
</svg>
