<svg width="35" height="35" viewBox="0 0 35 35" fill="none" xmlns="http://www.w3.org/2000/svg">
<mask id="mask0_16_270" style="mask-type:alpha" maskUnits="userSpaceOnUse" x="0" y="0" width="35" height="35">
<rect width="35" height="35" fill="#D9D9D9"/>
</mask>
<g mask="url(#mask0_16_270)">
<path d="M17.5 32.1198C17.1111 32.1198 16.7404 32.0469 16.388 31.9011C16.0356 31.7552 15.7135 31.5486 15.4219 31.2813L3.71873 19.5781C3.45137 19.2865 3.24477 18.9644 3.09894 18.612C2.9531 18.2596 2.88019 17.8889 2.88019 17.5C2.88019 17.1111 2.9531 16.7344 3.09894 16.3698C3.24477 16.0052 3.45137 15.6892 3.71873 15.4219L15.4219 3.71876C15.7135 3.42709 16.0356 3.21442 16.388 3.08074C16.7404 2.94706 17.1111 2.88022 17.5 2.88022C17.8889 2.88022 18.2656 2.94706 18.6302 3.08074C18.9948 3.21442 19.3107 3.42709 19.5781 3.71876L31.2812 15.4219C31.5729 15.6892 31.7856 16.0052 31.9193 16.3698C32.0529 16.7344 32.1198 17.1111 32.1198 17.5C32.1198 17.8889 32.0529 18.2596 31.9193 18.612C31.7856 18.9644 31.5729 19.2865 31.2812 19.5781L19.5781 31.2813C19.3107 31.5486 18.9948 31.7552 18.6302 31.9011C18.2656 32.0469 17.8889 32.1198 17.5 32.1198ZM17.5 29.2031L29.2031 17.5L17.5 5.79689L5.79685 17.5L17.5 29.2031ZM16.0416 18.9583H18.9583V10.2083H16.0416V18.9583ZM17.5 23.3333C17.9132 23.3333 18.2595 23.1936 18.539 22.9141C18.8186 22.6346 18.9583 22.2882 18.9583 21.875C18.9583 21.4618 18.8186 21.1155 18.539 20.8359C18.2595 20.5564 17.9132 20.4167 17.5 20.4167C17.0868 20.4167 16.7404 20.5564 16.4609 20.8359C16.1814 21.1155 16.0416 21.4618 16.0416 21.875C16.0416 22.2882 16.1814 22.6346 16.4609 22.9141C16.7404 23.1936 17.0868 23.3333 17.5 23.3333Z" fill="#DE1A22"/>
</g>
</svg>
