<svg width="20" height="20" viewBox="0 0 20 20" fill="none" xmlns="http://www.w3.org/2000/svg">
<mask id="mask0_192_11" style="mask-type:alpha" maskUnits="userSpaceOnUse" x="0" y="0" width="20" height="20">
<rect width="20" height="20" fill="#D9D9D9"/>
</mask>
<g mask="url(#mask0_192_11)">
<path d="M5 11.6667H11.6667V10H5V11.6667ZM5 9.16667H15V7.5H5V9.16667ZM5 6.66667H15V6.58333C14.4861 6.47222 14.0174 6.28125 13.5937 6.01042C13.1701 5.73958 12.8056 5.40278 12.5 5H5V6.66667ZM1.66667 18.3333V3.33333C1.66667 2.875 1.82986 2.48264 2.15625 2.15625C2.48264 1.82986 2.875 1.66667 3.33333 1.66667H11.75C11.6944 1.94444 11.6667 2.22222 11.6667 2.5C11.6667 2.77778 11.6944 3.05556 11.75 3.33333H3.33333V14.2708L4.29167 13.3333H16.6667V6.58333C16.9861 6.51389 17.2847 6.42014 17.5625 6.30208C17.8403 6.18403 18.0972 6.02778 18.3333 5.83333V13.3333C18.3333 13.7917 18.1701 14.184 17.8437 14.5104C17.5174 14.8368 17.125 15 16.6667 15H5L1.66667 18.3333ZM15.8333 5C15.1389 5 14.5486 4.75694 14.0625 4.27083C13.5764 3.78472 13.3333 3.19444 13.3333 2.5C13.3333 1.80556 13.5764 1.21528 14.0625 0.729167C14.5486 0.243056 15.1389 0 15.8333 0C16.5278 0 17.1181 0.243056 17.6042 0.729167C18.0903 1.21528 18.3333 1.80556 18.3333 2.5C18.3333 3.19444 18.0903 3.78472 17.6042 4.27083C17.1181 4.75694 16.5278 5 15.8333 5Z" fill="#333333"/>
</g>
</svg>
