<svg width="20" height="20" viewBox="0 0 20 20" fill="none" xmlns="http://www.w3.org/2000/svg">
<mask id="mask0_16_224" style="mask-type:alpha" maskUnits="userSpaceOnUse" x="0" y="0" width="20" height="20">
<rect width="20" height="20" fill="#D9D9D9"/>
</mask>
<g mask="url(#mask0_16_224)">
<path d="M7.5 10.4167H8.33334V8.75H9.16667C9.40278 8.75 9.6007 8.67014 9.76042 8.51042C9.92014 8.3507 10 8.15278 10 7.91667V7.08333C10 6.84722 9.92014 6.64931 9.76042 6.48958C9.6007 6.32986 9.40278 6.25 9.16667 6.25H7.5V10.4167ZM8.33334 7.91667V7.08333H9.16667V7.91667H8.33334ZM10.8333 10.4167H12.5C12.7361 10.4167 12.934 10.3368 13.0938 10.1771C13.2535 10.0174 13.3333 9.81945 13.3333 9.58333V7.08333C13.3333 6.84722 13.2535 6.64931 13.0938 6.48958C12.934 6.32986 12.7361 6.25 12.5 6.25H10.8333V10.4167ZM11.6667 9.58333V7.08333H12.5V9.58333H11.6667ZM14.1667 10.4167H15V8.75H15.8333V7.91667H15V7.08333H15.8333V6.25H14.1667V10.4167ZM6.66667 15C6.20834 15 5.81598 14.8368 5.48959 14.5104C5.1632 14.184 5.00001 13.7917 5.00001 13.3333V3.33333C5.00001 2.875 5.1632 2.48264 5.48959 2.15625C5.81598 1.82986 6.20834 1.66667 6.66667 1.66667H16.6667C17.125 1.66667 17.5174 1.82986 17.8438 2.15625C18.1701 2.48264 18.3333 2.875 18.3333 3.33333V13.3333C18.3333 13.7917 18.1701 14.184 17.8438 14.5104C17.5174 14.8368 17.125 15 16.6667 15H6.66667ZM6.66667 13.3333H16.6667V3.33333H6.66667V13.3333ZM3.33334 18.3333C2.87501 18.3333 2.48264 18.1701 2.15626 17.8438C1.82987 17.5174 1.66667 17.125 1.66667 16.6667V5H3.33334V16.6667H15V18.3333H3.33334Z" fill="white"/>
</g>
</svg>
