<svg width="41" height="41" viewBox="0 0 41 41" fill="none" xmlns="http://www.w3.org/2000/svg">
<path d="M20.5 0C18.0468 0 15.6483 0.428792 13.3694 1.27442L13.9639 2.87598C16.0515 2.10125 18.251 1.70833 20.5 1.70833C30.8619 1.70833 39.2917 10.1381 39.2917 20.5C39.2917 30.8619 30.8619 39.2917 20.5 39.2917C10.1381 39.2917 1.70833 30.8619 1.70833 20.5C1.70833 14.8668 4.23923 9.57094 8.54167 6.01504V11.9583H10.25V3.41667H1.70833V5.125H6.94096C2.55652 8.99438 0 14.5789 0 20.5C0 31.8032 9.19681 41 20.5 41C31.8032 41 41 31.8032 41 20.5C41 9.19681 31.8032 0 20.5 0Z" fill="black"/>
<path d="M15.3753 27.333H13.667V29.0413H27.3337V27.333H25.6253V24.4169L21.7081 20.4997L25.6253 16.5825V13.6663H27.3337V11.958H13.667V13.6663H15.3753V16.5825L19.2925 20.4997L15.3753 24.4169V27.333ZM17.0837 15.8752V13.6663H23.917V15.8752L20.5003 19.2919L17.0837 15.8752ZM20.5003 21.7075L23.917 25.1241V27.333H17.0837V25.1241L20.5003 21.7075Z" fill="black"/>
<path d="M17.0833 32.458H15.375V34.1663H17.0833V32.458Z" fill="black"/>
<path d="M21.3538 32.458H19.6455V34.1663H21.3538V32.458Z" fill="black"/>
<path d="M25.6253 32.458H23.917V34.1663H25.6253V32.458Z" fill="black"/>
</svg>
