<svg width="35" height="35" viewBox="0 0 35 35" fill="none" xmlns="http://www.w3.org/2000/svg">
<mask id="mask0_16_237" style="mask-type:alpha" maskUnits="userSpaceOnUse" x="0" y="0" width="35" height="35">
<rect width="35" height="35" fill="#D9D9D9"/>
</mask>
<g mask="url(#mask0_16_237)">
<path d="M27.7083 20.4167V10.9375L20.4166 5.83333L13.125 10.9375V13.125H10.2083V9.47917L20.4166 2.1875L30.625 9.47917V20.4167H27.7083ZM21.1458 11.6667H22.6041V10.2083H21.1458V11.6667ZM18.2291 11.6667H19.6875V10.2083H18.2291V11.6667ZM21.1458 14.5833H22.6041V13.125H21.1458V14.5833ZM18.2291 14.5833H19.6875V13.125H18.2291V14.5833ZM10.2083 26.9792L20.3437 29.75L29.0208 27.0521C28.8993 26.8333 28.7231 26.645 28.4922 26.487C28.2613 26.329 28 26.25 27.7083 26.25H20.3437C19.6875 26.25 19.1649 26.2257 18.776 26.1771C18.3871 26.1285 17.9861 26.0312 17.5729 25.8854L14.1823 24.7552L14.9844 21.9115L17.9375 22.8958C18.3507 23.0174 18.8368 23.1146 19.3958 23.1875C19.9548 23.2604 20.7812 23.309 21.875 23.3333C21.875 23.066 21.796 22.8108 21.638 22.5677C21.48 22.3247 21.2916 22.1667 21.0729 22.0938L12.5416 18.9583H10.2083V26.9792ZM1.45831 32.0833V16.0417H12.5416C12.7118 16.0417 12.8819 16.0599 13.0521 16.0964C13.2222 16.1328 13.3802 16.1753 13.526 16.224L22.0937 19.3958C22.8958 19.6875 23.546 20.1979 24.0443 20.9271C24.5425 21.6563 24.7916 22.4583 24.7916 23.3333H27.7083C28.9236 23.3333 29.9566 23.7344 30.8073 24.5365C31.658 25.3385 32.0833 26.3958 32.0833 27.7083V29.1667L20.4166 32.8125L10.2083 29.9688V32.0833H1.45831ZM4.37498 29.1667H7.29165V18.9583H4.37498V29.1667Z" fill="#DE1A22"/>
</g>
</svg>
