<svg width="35" height="35" viewBox="0 0 35 35" fill="none" xmlns="http://www.w3.org/2000/svg">
<mask id="mask0_16_238" style="mask-type:alpha" maskUnits="userSpaceOnUse" x="0" y="0" width="35" height="35">
<rect width="35" height="35" fill="#D9D9D9"/>
</mask>
<g mask="url(#mask0_16_238)">
<path d="M8.74998 29.1667C7.5347 29.1667 6.50172 28.7413 5.65102 27.8906C4.80033 27.0399 4.37498 26.0069 4.37498 24.7917H1.45831V8.74999C1.45831 7.94791 1.7439 7.26128 2.31508 6.6901C2.88626 6.11892 3.5729 5.83333 4.37498 5.83333H24.7916V11.6667H29.1666L33.5416 17.5V24.7917H30.625C30.625 26.0069 30.1996 27.0399 29.3489 27.8906C28.4982 28.7413 27.4653 29.1667 26.25 29.1667C25.0347 29.1667 24.0017 28.7413 23.151 27.8906C22.3003 27.0399 21.875 26.0069 21.875 24.7917H13.125C13.125 26.0069 12.6996 27.0399 11.8489 27.8906C10.9982 28.7413 9.96526 29.1667 8.74998 29.1667ZM8.74998 26.25C9.16317 26.25 9.50953 26.1102 9.78904 25.8307C10.0686 25.5512 10.2083 25.2049 10.2083 24.7917C10.2083 24.3785 10.0686 24.0321 9.78904 23.7526C9.50953 23.4731 9.16317 23.3333 8.74998 23.3333C8.33678 23.3333 7.99043 23.4731 7.71092 23.7526C7.4314 24.0321 7.29165 24.3785 7.29165 24.7917C7.29165 25.2049 7.4314 25.5512 7.71092 25.8307C7.99043 26.1102 8.33678 26.25 8.74998 26.25ZM4.37498 21.875H5.54165C5.95484 21.4375 6.4288 21.0851 6.96352 20.8177C7.49824 20.5503 8.09373 20.4167 8.74998 20.4167C9.40623 20.4167 10.0017 20.5503 10.5364 20.8177C11.0712 21.0851 11.5451 21.4375 11.9583 21.875H21.875V8.74999H4.37498V21.875ZM26.25 26.25C26.6632 26.25 27.0095 26.1102 27.289 25.8307C27.5686 25.5512 27.7083 25.2049 27.7083 24.7917C27.7083 24.3785 27.5686 24.0321 27.289 23.7526C27.0095 23.4731 26.6632 23.3333 26.25 23.3333C25.8368 23.3333 25.4904 23.4731 25.2109 23.7526C24.9314 24.0321 24.7916 24.3785 24.7916 24.7917C24.7916 25.2049 24.9314 25.5512 25.2109 25.8307C25.4904 26.1102 25.8368 26.25 26.25 26.25ZM24.7916 18.9583H30.9896L27.7083 14.5833H24.7916V18.9583Z" fill="#DE1A22"/>
</g>
</svg>
