<svg width="24" height="14" viewBox="0 0 24 14" fill="none" xmlns="http://www.w3.org/2000/svg">
<path d="M8.50322 3.18876C8.50322 1.3818 9.88502 0 11.692 0C13.4989 0 14.8807 1.3818 14.8807 3.18876C14.8807 4.99573 13.4989 6.37753 11.692 6.37753C9.88502 6.37753 8.50322 4.99573 8.50322 3.18876ZM11.692 8.50337C6.80254 8.50337 5.31445 12.011 5.31445 12.011V13.818H18.0695V12.011C18.0695 12.011 16.5814 8.50337 11.692 8.50337Z" fill="white"/>
<path d="M18.6007 5.31461C20.0683 5.31461 21.258 4.12489 21.258 2.6573C21.258 1.18972 20.0683 0 18.6007 0C17.1331 0 15.9434 1.18972 15.9434 2.6573C15.9434 4.12489 17.1331 5.31461 18.6007 5.31461Z" fill="white"/>
<path d="M18.6012 7.44043C17.3257 7.44043 16.369 7.75931 15.625 8.29077C18.0697 9.45998 19.0263 11.4795 19.0263 11.6921V11.7984H23.3843V10.4166C23.3843 10.3103 22.2151 7.44043 18.6012 7.44043Z" fill="white"/>
<path d="M4.78328 5.31461C6.25087 5.31461 7.44058 4.12489 7.44058 2.6573C7.44058 1.18972 6.25087 0 4.78328 0C3.31569 0 2.12598 1.18972 2.12598 2.6573C2.12598 4.12489 3.31569 5.31461 4.78328 5.31461Z" fill="white"/>
<path d="M4.78315 7.44043C6.05865 7.44043 7.01528 7.75931 7.75933 8.29077C5.31461 9.45998 4.35798 11.4795 4.35798 11.6921V11.7984H0V10.4166C0 10.3103 1.16921 7.44043 4.78315 7.44043Z" fill="white"/>
</svg>
